<svg xmlns="http://www.w3.org/2000/svg" xmlns:xlink="http://www.w3.org/1999/xlink" width="500" zoomAndPan="magnify" viewBox="0 0 375 374.999991" height="500" preserveAspectRatio="xMidYMid meet" version="1.0"><defs><g/><clipPath id="14e99f21f3"><path d="M 60.222656 60.222656 L 314.472656 60.222656 L 314.472656 314.472656 L 60.222656 314.472656 Z M 60.222656 60.222656 " clip-rule="nonzero"/></clipPath><clipPath id="ae988fe1e1"><path d="M 166.429688 119 L 202 119 L 202 232.148438 L 166.429688 232.148438 Z M 166.429688 119 " clip-rule="nonzero"/></clipPath></defs><rect x="-37.5" width="450" fill="#ffffff" y="-37.499999" height="449.999989" fill-opacity="1"/><rect x="-37.5" width="450" fill="#ffffff" y="-37.499999" height="449.999989" fill-opacity="1"/><g clip-path="url(#14e99f21f3)"><path fill="#002a60" d="M 187.5 314.777344 C 117.339844 314.777344 60.222656 257.660156 60.222656 187.5 C 60.222656 117.339844 117.339844 60.222656 187.5 60.222656 C 257.660156 60.222656 314.777344 117.339844 314.777344 187.5 C 314.777344 257.660156 257.660156 314.777344 187.5 314.777344 Z M 187.5 62.101562 C 118.34375 62.101562 62.101562 118.34375 62.101562 187.5 C 62.101562 256.65625 118.34375 312.894531 187.5 312.894531 C 256.65625 312.894531 312.894531 256.65625 312.894531 187.5 C 312.894531 118.34375 256.65625 62.101562 187.5 62.101562 Z M 187.5 62.101562 " fill-opacity="1" fill-rule="nonzero"/></g><g clip-path="url(#ae988fe1e1)"><path fill="#002a60" d="M 195.773438 154.03125 L 195.765625 154.039062 C 195.710938 154.023438 195.660156 154.007812 195.695312 154.019531 C 195.660156 154.011719 195.714844 154.023438 195.769531 154.035156 L 195.773438 154.03125 C 196.648438 152.621094 197.457031 151.15625 198.441406 149.820312 C 198.84375 149.277344 199.917969 148.183594 200.367188 148.800781 C 201.230469 149.984375 197.4375 152.425781 195.773438 154.03125 Z M 194.640625 153.785156 L 194.621094 153.710938 L 194.6875 153.722656 Z M 188.695312 164.992188 C 188.199219 162.757812 186.152344 158.089844 187.84375 157.871094 C 190.835938 157.480469 189.140625 162.632812 188.695312 164.992188 Z M 193.988281 168.375 C 194.523438 169.8125 189.988281 172.140625 187.363281 173.144531 L 187.351562 173.175781 C 187.367188 173.183594 187.386719 173.191406 187.40625 173.195312 C 187.382812 173.203125 187.359375 173.210938 187.335938 173.214844 C 187.339844 173.203125 187.34375 173.191406 187.351562 173.175781 L 187.332031 173.171875 C 189.148438 171.023438 193.601562 167.347656 193.988281 168.375 Z M 183.34375 178.117188 C 183.34375 178.117188 182.25 172.046875 183.34375 171.25 C 184.4375 170.453125 184.226562 176.671875 183.34375 178.117188 Z M 187.867188 182.59375 C 188.335938 183.113281 185.425781 186.203125 183.566406 187.636719 C 184.445312 185.453125 186.160156 180.710938 187.867188 182.59375 Z M 177.371094 208.246094 C 176.765625 200.015625 178.75 192.261719 181.730469 184.699219 C 182.457031 192.953125 178.996094 200.429688 177.371094 208.246094 Z M 176.507812 194.667969 C 175.40625 192.625 173.683594 188.5625 175.144531 188.367188 C 176.425781 188.191406 176.796875 192.296875 176.507812 194.667969 Z M 179.234375 172.082031 L 179.253906 172.0625 C 179.414062 171.226562 180.664062 165.425781 181.730469 165.425781 C 183.855469 165.425781 180.253906 170.992188 179.253906 172.0625 C 179.242188 172.121094 179.234375 172.160156 179.234375 172.164062 Z M 167.972656 162.285156 C 168.652344 161.601562 172.453125 164.273438 174.371094 167.253906 C 171.722656 166.542969 166.660156 163.617188 167.972656 162.285156 Z M 169.5625 144.851562 C 169.796875 143.628906 172.273438 144.976562 172.941406 148.15625 L 173.019531 148.207031 C 172.941406 148.15625 169.328125 146.074219 169.5625 144.851562 Z M 172.691406 142.539062 C 173.542969 141.632812 174.910156 144.101562 173.765625 147.140625 L 173.804688 147.226562 C 173.765625 147.140625 171.835938 143.441406 172.691406 142.539062 Z M 176.511719 143.734375 C 177.503906 143.734375 176.824219 145.871094 174.445312 146.871094 L 174.414062 146.9375 C 174.445312 146.871094 175.523438 143.734375 176.511719 143.734375 Z M 178.089844 146.847656 C 179.082031 147.601562 176.773438 149.226562 173.632812 148.414062 L 173.550781 148.460938 C 173.632812 148.414062 177.101562 146.097656 178.089844 146.847656 Z M 175.035156 157.925781 L 175.066406 157.894531 C 175.042969 156.019531 177.316406 151.335938 178.277344 152.515625 C 178.996094 153.402344 176.5 156.320312 175.066406 157.894531 C 175.066406 157.914062 175.0625 157.933594 175.0625 157.949219 C 174.984375 157.945312 174.910156 157.941406 174.921875 157.941406 C 174.898438 157.945312 174.96875 157.9375 175.035156 157.925781 Z M 193.785156 145.210938 C 193.785156 145.191406 193.78125 145.171875 193.78125 145.152344 C 192.464844 143.644531 191.140625 142.140625 189.867188 140.59375 C 189.503906 140.15625 188.570312 139.5625 188.960938 138.992188 C 189.636719 138.007812 193.800781 142.714844 193.78125 145.152344 C 193.792969 145.167969 193.808594 145.183594 193.820312 145.199219 C 193.882812 145.195312 193.941406 145.191406 194.003906 145.1875 C 193.929688 145.195312 193.859375 145.203125 193.785156 145.210938 Z M 195.449219 122.320312 C 195.714844 124.695312 191.882812 127.152344 191.882812 127.152344 C 192.296875 125.953125 195.1875 119.949219 195.449219 122.320312 Z M 191.378906 120.71875 C 192.632812 119.195312 191.949219 124.671875 191.699219 125.6875 C 191.699219 125.6875 190.128906 122.246094 191.378906 120.71875 Z M 188.195312 122.324219 C 188.609375 120.394531 190.515625 125.574219 190.761719 126.59375 C 190.761719 126.59375 187.785156 124.253906 188.195312 122.324219 Z M 186.34375 124.78125 C 185.839844 122.875 189.878906 126.632812 190.554688 127.433594 C 190.554688 127.433594 186.84375 126.6875 186.34375 124.78125 Z M 199.03125 130.375 C 198.902344 133.042969 196.910156 134.667969 195.785156 136.722656 L 195.789062 136.730469 L 195.78125 136.730469 L 195.773438 136.75 L 195.707031 136.714844 L 195.78125 136.730469 L 195.785156 136.722656 C 195.285156 134.226562 196.792969 131.160156 199.03125 130.375 Z M 201.570312 148.46875 C 201.25 147.746094 200.324219 147.886719 199.972656 147.992188 C 197.367188 148.785156 196.382812 151.234375 194.804688 153.378906 C 194.828125 152.921875 194.824219 152.695312 194.847656 152.472656 C 195.148438 149.679688 195.820312 146.867188 195.664062 144.101562 C 195.453125 140.367188 195.601562 137.882812 198.425781 134.996094 C 199.402344 134 201.003906 131.113281 199.984375 129.84375 C 199.164062 128.816406 197.652344 129.667969 196.414062 131.5 C 195.695312 132.566406 195.335938 133.882812 194.980469 134.707031 C 194.15625 132.617188 193.207031 130.203125 192.1875 127.613281 C 194.246094 126.375 196.042969 124.769531 196.503906 122.0625 C 196.535156 121.605469 196.238281 121.28125 195.929688 121.066406 C 194.074219 119.789062 193.574219 122.726562 192.628906 123.871094 C 193 122.472656 193.507812 118.902344 191.246094 119.171875 C 189.394531 119.394531 190.085938 122.164062 190.394531 123.625 C 189.582031 122.628906 188.878906 119.769531 187.65625 120.996094 C 187.238281 121.414062 187.359375 122.070312 187.4375 122.5625 C 187.601562 123.648438 188.097656 124.167969 188.136719 124.277344 L 188.152344 124.277344 C 188.230469 124.234375 188.292969 124.199219 188.152344 124.277344 L 188.140625 124.285156 L 188.136719 124.277344 C 187.464844 123.984375 186.847656 123.277344 186.128906 123.410156 C 185.949219 123.441406 185.789062 123.621094 185.734375 123.796875 C 185.585938 124.289062 185.839844 124.855469 186.070312 125.289062 C 187.160156 127.355469 189.152344 127.875 191.117188 128.054688 C 194.328125 133.117188 194.71875 138.625 194.71875 144.226562 C 194.289062 143.554688 194.09375 142.75 193.632812 142.160156 C 192.578125 140.8125 191.472656 139.480469 190.226562 138.320312 C 189.476562 137.628906 188.039062 137.855469 188.175781 139.226562 C 188.253906 140 188.972656 140.75 189.558594 141.441406 C 191.046875 143.207031 192.671875 144.859375 194.136719 146.640625 C 194.535156 147.125 194.855469 147.984375 194.714844 148.546875 C 193.722656 152.582031 192.617188 156.589844 191.515625 160.597656 C 191.34375 161.222656 191.007812 161.804688 190.734375 162.402344 C 190.46875 162.980469 190.183594 163.546875 189.910156 164.121094 C 190.125 161.5 190.957031 157.179688 187.921875 157.113281 C 186.320312 157.078125 186.410156 159.238281 186.679688 160.472656 C 187.058594 162.207031 187.6875 163.890625 188.003906 165.628906 C 188.175781 166.574219 188.15625 167.6875 187.816406 168.566406 C 187.039062 170.574219 186.007812 172.476562 185.082031 174.425781 C 184.980469 174.636719 184.890625 174.855469 184.765625 175.054688 C 184.679688 175.199219 184.542969 175.3125 184.4375 175.433594 C 184.4375 173.71875 185.554688 171.632812 184.4375 170.453125 C 183.402344 169.359375 182.082031 171.089844 182.074219 172.699219 C 182.0625 174.785156 182.34375 176.871094 182.464844 178.960938 C 182.496094 179.5 182.414062 180.042969 182.386719 180.585938 C 182.320312 180.574219 182.257812 180.566406 182.191406 180.554688 C 181.382812 178.320312 180.578125 176.089844 179.699219 173.664062 C 180.050781 170.769531 185.285156 166.351562 182.304688 164.664062 C 180.429688 163.605469 180.058594 166.390625 179.574219 167.503906 C 179.015625 168.777344 178.84375 170.21875 178.476562 171.703125 C 178.296875 171.453125 178.179688 171.3125 178.089844 171.160156 C 176.34375 168.175781 175.28125 164.960938 174.582031 161.578125 C 174.339844 160.398438 174.519531 159.601562 175.292969 158.785156 C 176.035156 158 176.789062 157.207031 177.425781 156.335938 C 178.390625 155.011719 180.328125 152.949219 178.714844 151.664062 C 177.25 150.496094 176.257812 153.011719 175.59375 154.179688 C 174.894531 155.410156 174.449219 156.785156 173.804688 158.304688 C 173.707031 156.550781 173.554688 155.003906 173.550781 153.453125 C 173.542969 151.925781 173.652344 150.886719 173.726562 149.351562 C 175.792969 149.097656 179.246094 149.660156 179.164062 146.976562 C 179.152344 146.601562 179.039062 146.09375 178.574219 145.863281 C 177.871094 145.511719 177.042969 146.097656 176.28125 146.230469 L 176.257812 146.257812 C 176.273438 146.28125 176.285156 146.304688 176.296875 146.328125 C 176.277344 146.3125 176.253906 146.296875 176.230469 146.289062 L 176.257812 146.257812 L 176.25 146.238281 L 176.28125 146.230469 C 178.113281 144.253906 178.785156 142.988281 177.375 142.265625 C 176.035156 141.582031 175.554688 143.6875 174.726562 144.515625 C 174.730469 144.53125 174.734375 144.546875 174.734375 144.5625 C 174.707031 144.582031 174.679688 144.601562 174.660156 144.613281 C 174.640625 144.648438 174.632812 144.660156 174.660156 144.613281 L 174.652344 144.617188 C 174.628906 144.632812 174.632812 144.628906 174.652344 144.617188 L 174.660156 144.613281 C 174.671875 144.59375 174.6875 144.566406 174.703125 144.539062 L 174.726562 144.515625 C 174.550781 143.628906 174.375 142.738281 174.191406 141.800781 C 173.878906 141.183594 173.152344 140.636719 172.1875 141.859375 C 171.472656 142.769531 172.445312 144.003906 172.164062 144.882812 C 171.488281 144.472656 170.789062 143.3125 169.824219 143.457031 C 169.601562 143.488281 169.105469 143.863281 169.015625 144.070312 C 167.960938 146.519531 171.257812 147.855469 173 149.34375 C 171.972656 155.15625 173.527344 160.671875 174.773438 165.859375 C 173.253906 164.640625 171.597656 163.210938 169.824219 161.933594 C 168.957031 161.3125 166.496094 160.976562 167.011719 162.683594 C 169.148438 166.253906 173.125 167.316406 176.179688 169.425781 C 176.597656 170.175781 176.949219 170.835938 177.328125 171.484375 C 179.09375 174.484375 180.6875 177.554688 181.332031 181.023438 C 181.4375 181.605469 181.511719 182.273438 181.332031 182.8125 C 180.09375 186.570312 178.785156 190.304688 177.671875 193.542969 C 177.394531 192.246094 177.082031 190.429688 176.597656 188.660156 C 176.359375 187.785156 175.382812 186.457031 174.453125 187.582031 C 174.121094 187.980469 174.125 188.664062 174.113281 189.246094 C 174.054688 191.839844 175.164062 194.035156 176.519531 196.15625 C 176.824219 196.636719 177.042969 197.34375 176.953125 197.886719 C 176.164062 202.527344 176.136719 207.191406 176.695312 211.832031 C 177.539062 218.816406 180.433594 225.046875 184.179688 230.910156 C 184.574219 231.523438 185.199219 231.984375 185.71875 232.515625 C 185.816406 232.421875 185.921875 232.324219 186.023438 232.226562 C 185.507812 231.546875 184.867188 230.921875 184.496094 230.167969 C 182.628906 226.339844 180.613281 222.558594 179.074219 218.597656 C 177.597656 214.777344 177.136719 210.804688 178.429688 206.671875 C 179.886719 202 181.113281 197.238281 182.105469 192.445312 C 182.578125 190.167969 183.519531 188.585938 185.34375 187.199219 C 186.878906 186.03125 188.683594 184.109375 188.832031 182.363281 C 188.863281 181.996094 188.421875 181.480469 187.960938 181.355469 C 185.21875 180.628906 184.375 184.742188 182.804688 186.9375 C 182.804688 184.964844 182.515625 183.230469 182.882812 181.648438 C 183.304688 179.855469 184.394531 178.230469 185.042969 176.476562 C 185.488281 175.269531 186.324219 174.660156 187.378906 174.050781 C 189.652344 172.738281 191.183594 172.535156 193.101562 170.746094 C 193.960938 169.949219 195.109375 168.875 194.96875 168.148438 C 194.863281 167.960938 194.761719 167.773438 194.65625 167.585938 C 193.9375 167.316406 192.621094 167.449219 192.097656 167.800781 C 190.347656 168.976562 189.480469 169.492188 187.496094 171.632812 C 187.480469 171.667969 187.46875 171.707031 187.457031 171.742188 C 187.429688 171.761719 187.40625 171.785156 187.382812 171.804688 C 187.394531 171.773438 187.410156 171.742188 187.421875 171.707031 C 187.449219 171.679688 187.46875 171.660156 187.496094 171.632812 C 187.621094 171.28125 187.742188 170.925781 187.890625 170.585938 C 189.683594 166.519531 191.585938 162.5 193.234375 158.375 C 193.902344 156.714844 194.855469 155.511719 196.261719 154.480469 C 197.730469 153.398438 199.128906 152.195312 200.40625 150.898438 C 200.960938 150.335938 201.984375 149.410156 201.570312 148.46875 " fill-opacity="1" fill-rule="nonzero"/></g><g fill="#002a60" fill-opacity="1"><g transform="translate(225.555004, 220.634151)"><g><path d="M -9.078125 15.515625 C -7.015625 16.203125 -4.96875 16.546875 -2.9375 16.546875 C -0.90625 16.546875 1.21875 16.125 3.4375 15.28125 C 5.664062 14.4375 7.695312 13.113281 9.53125 11.3125 C 11.375 9.519531 12.890625 6.820312 14.078125 3.21875 C 15.265625 -0.382812 15.859375 -4.640625 15.859375 -9.546875 L 15.859375 -72.0625 C 15.773438 -74.050781 15.023438 -75.753906 13.609375 -77.171875 C 12.191406 -78.597656 10.488281 -79.3125 8.5 -79.3125 L 7 -79.3125 L 7 -80.453125 L 32.171875 -80.453125 L 32.171875 -79.3125 L 30.6875 -79.3125 C 28.6875 -79.3125 26.976562 -78.617188 25.5625 -77.234375 C 24.144531 -75.859375 23.398438 -74.132812 23.328125 -72.0625 L 23.328125 -9.1875 C 23.328125 -3.976562 22.519531 0.578125 20.90625 4.484375 C 19.300781 8.390625 17.273438 11.335938 14.828125 13.328125 C 10.222656 16.929688 5.125 18.734375 -0.46875 18.734375 C -3.757812 18.734375 -6.785156 18.082031 -9.546875 16.78125 Z M -9.078125 15.515625 "/></g></g></g><g fill="#002a60" fill-opacity="1"><g transform="translate(123.71556, 282.728513)"><g><path d="M 0.796875 -0.015625 C 2.828125 -0.0859375 4.539062 -0.320312 5.9375 -0.71875 C 7.332031 -1.113281 8.296875 -1.734375 8.828125 -2.578125 C 9.171875 -3.117188 9.304688 -3.65625 9.234375 -4.1875 C 9.160156 -4.71875 8.796875 -5.191406 8.140625 -5.609375 C 7.484375 -6.023438 6.859375 -6.140625 6.265625 -5.953125 C 5.671875 -5.773438 5.144531 -5.367188 4.6875 -4.734375 L 4.1875 -5.0625 C 4.757812 -5.851562 5.421875 -6.332031 6.171875 -6.5 C 6.921875 -6.675781 7.671875 -6.523438 8.421875 -6.046875 C 9.097656 -5.617188 9.535156 -5.070312 9.734375 -4.40625 C 9.929688 -3.738281 9.789062 -3.03125 9.3125 -2.28125 C 8.71875 -1.332031 7.6875 -0.648438 6.21875 -0.234375 C 4.757812 0.171875 3.25 0.382812 1.6875 0.40625 L 6.1875 3.25 L 5.921875 3.671875 L 0.59375 0.3125 Z M 0.796875 -0.015625 "/></g></g></g><g fill="#002a60" fill-opacity="1"><g transform="translate(131.721463, 287.717237)"><g><path d="M 9.078125 -3.296875 C 9.285156 -3.910156 9.300781 -4.457031 9.125 -4.9375 C 8.957031 -5.425781 8.585938 -5.816406 8.015625 -6.109375 C 7.203125 -6.535156 6.421875 -6.554688 5.671875 -6.171875 C 4.929688 -5.785156 4.21875 -4.925781 3.53125 -3.59375 L 3.296875 -3.125 C 3.703125 -3.613281 4.226562 -3.890625 4.875 -3.953125 C 5.53125 -4.023438 6.175781 -3.894531 6.8125 -3.5625 C 7.664062 -3.125 8.195312 -2.519531 8.40625 -1.75 C 8.625 -0.988281 8.503906 -0.164062 8.046875 0.71875 C 7.785156 1.226562 7.453125 1.644531 7.046875 1.96875 C 6.640625 2.289062 6.164062 2.46875 5.625 2.5 C 5.082031 2.539062 4.503906 2.40625 3.890625 2.09375 C 2.710938 1.476562 2.097656 0.6875 2.046875 -0.28125 C 1.992188 -1.25 2.304688 -2.394531 2.984375 -3.71875 C 3.722656 -5.125 4.519531 -6.085938 5.375 -6.609375 C 6.238281 -7.128906 7.195312 -7.113281 8.25 -6.5625 C 8.976562 -6.1875 9.453125 -5.6875 9.671875 -5.0625 C 9.890625 -4.4375 9.863281 -3.757812 9.59375 -3.03125 Z M 6.5 -3.15625 C 6.09375 -3.363281 5.660156 -3.476562 5.203125 -3.5 C 4.742188 -3.53125 4.3125 -3.4375 3.90625 -3.21875 C 3.5 -3 3.171875 -2.648438 2.921875 -2.171875 C 2.691406 -1.722656 2.566406 -1.257812 2.546875 -0.78125 C 2.523438 -0.3125 2.640625 0.132812 2.890625 0.5625 C 3.140625 0.988281 3.546875 1.34375 4.109375 1.625 C 4.773438 1.976562 5.421875 2.050781 6.046875 1.84375 C 6.671875 1.644531 7.171875 1.1875 7.546875 0.46875 C 7.941406 -0.300781 8.039062 -1.003906 7.84375 -1.640625 C 7.65625 -2.273438 7.207031 -2.78125 6.5 -3.15625 Z M 6.5 -3.15625 "/></g></g></g><g fill="#002a60" fill-opacity="1"><g transform="translate(140.700252, 292.206058)"><g/></g></g><g fill="#002a60" fill-opacity="1"><g transform="translate(145.77324, 294.440817)"><g><path d="M 6.59375 -7.640625 C 8.082031 -7.117188 9.097656 -6.328125 9.640625 -5.265625 C 10.179688 -4.203125 10.207031 -2.96875 9.71875 -1.5625 C 9.226562 -0.164062 8.441406 0.773438 7.359375 1.265625 C 6.285156 1.753906 5.003906 1.738281 3.515625 1.21875 L 1.03125 0.359375 L 4.109375 -8.5 Z M 3.671875 0.75 C 5.003906 1.21875 6.140625 1.222656 7.078125 0.765625 C 8.023438 0.316406 8.710938 -0.523438 9.140625 -1.765625 C 9.566406 -3.003906 9.550781 -4.09375 9.09375 -5.03125 C 8.644531 -5.976562 7.753906 -6.6875 6.421875 -7.15625 L 4.5 -7.828125 L 1.75 0.078125 Z M 3.671875 0.75 "/></g></g></g><g fill="#002a60" fill-opacity="1"><g transform="translate(156.416368, 297.987539)"><g><path d="M 3.8125 -8.1875 L 2.859375 -4.390625 L 6.484375 -3.46875 L 6.34375 -2.96875 L 2.71875 -3.890625 L 1.765625 -0.078125 L 5.78125 0.9375 L 5.65625 1.421875 L 1.0625 0.265625 L 3.359375 -8.828125 L 7.953125 -7.671875 L 7.828125 -7.171875 Z M 3.8125 -8.1875 "/></g></g></g><g fill="#002a60" fill-opacity="1"><g transform="translate(164.460801, 299.919508)"><g/></g></g><g fill="#002a60" fill-opacity="1"><g transform="translate(169.84979, 300.918678)"><g><path d="M 6.140625 -8.671875 L 5.21875 -1.453125 C 5.132812 -0.804688 4.867188 -0.304688 4.421875 0.046875 C 3.972656 0.398438 3.414062 0.53125 2.75 0.4375 C 2.019531 0.351562 1.476562 0.0664062 1.125 -0.421875 C 0.78125 -0.910156 0.65625 -1.539062 0.75 -2.3125 L 1.328125 -2.25 C 1.253906 -1.675781 1.332031 -1.191406 1.5625 -0.796875 C 1.800781 -0.398438 2.222656 -0.164062 2.828125 -0.09375 C 3.378906 -0.0195312 3.800781 -0.125 4.09375 -0.40625 C 4.394531 -0.695312 4.570312 -1.066406 4.625 -1.515625 L 5.546875 -8.734375 Z M 6.140625 -8.671875 "/></g></g></g><g fill="#002a60" fill-opacity="1"><g transform="translate(177.775049, 301.903787)"><g><path d="M 2.0625 -9.28125 L 1.796875 -3.4375 C 1.753906 -2.375 1.957031 -1.582031 2.40625 -1.0625 C 2.863281 -0.550781 3.507812 -0.28125 4.34375 -0.25 C 5.15625 -0.207031 5.8125 -0.421875 6.3125 -0.890625 C 6.8125 -1.359375 7.082031 -2.128906 7.125 -3.203125 L 7.390625 -9.046875 L 7.984375 -9.015625 L 7.71875 -3.171875 C 7.664062 -1.953125 7.332031 -1.054688 6.71875 -0.484375 C 6.101562 0.078125 5.304688 0.332031 4.328125 0.28125 C 3.335938 0.238281 2.554688 -0.09375 1.984375 -0.71875 C 1.410156 -1.34375 1.148438 -2.257812 1.203125 -3.46875 L 1.46875 -9.3125 Z M 2.0625 -9.28125 "/></g></g></g><g fill="#002a60" fill-opacity="1"><g transform="translate(188.165561, 302.241044)"><g><path d="M 1.671875 -0.5625 L 5.15625 -0.671875 L 5.171875 -0.171875 L 1.09375 -0.03125 L 0.78125 -9.40625 L 1.375 -9.4375 Z M 1.671875 -0.5625 "/></g></g></g><g fill="#002a60" fill-opacity="1"><g transform="translate(195.286839, 301.927225)"><g><path d="M 0.890625 -9.484375 L 1.6875 -0.140625 L 1.09375 -0.09375 L 0.296875 -9.4375 Z M 0.890625 -9.484375 "/></g></g></g><g fill="#002a60" fill-opacity="1"><g transform="translate(199.865616, 301.617633)"><g><path d="M 5.21875 -0.734375 C 4.363281 -0.585938 3.5625 -0.660156 2.8125 -0.953125 C 2.0625 -1.242188 1.429688 -1.71875 0.921875 -2.375 C 0.421875 -3.03125 0.0976562 -3.8125 -0.046875 -4.71875 C -0.191406 -5.632812 -0.128906 -6.476562 0.140625 -7.25 C 0.410156 -8.03125 0.859375 -8.675781 1.484375 -9.1875 C 2.109375 -9.695312 2.847656 -10.023438 3.703125 -10.171875 C 4.554688 -10.304688 5.351562 -10.226562 6.09375 -9.9375 C 6.84375 -9.644531 7.46875 -9.171875 7.96875 -8.515625 C 8.476562 -7.867188 8.804688 -7.085938 8.953125 -6.171875 C 9.097656 -5.265625 9.035156 -4.421875 8.765625 -3.640625 C 8.492188 -2.859375 8.046875 -2.210938 7.421875 -1.703125 C 6.804688 -1.191406 6.070312 -0.867188 5.21875 -0.734375 Z M 5.140625 -1.265625 C 5.867188 -1.378906 6.5 -1.65625 7.03125 -2.09375 C 7.5625 -2.53125 7.941406 -3.09375 8.171875 -3.78125 C 8.410156 -4.46875 8.460938 -5.234375 8.328125 -6.078125 C 8.191406 -6.929688 7.90625 -7.644531 7.46875 -8.21875 C 7.03125 -8.800781 6.488281 -9.210938 5.84375 -9.453125 C 5.195312 -9.703125 4.507812 -9.769531 3.78125 -9.65625 C 3.050781 -9.53125 2.421875 -9.25 1.890625 -8.8125 C 1.359375 -8.382812 0.96875 -7.828125 0.71875 -7.140625 C 0.476562 -6.453125 0.425781 -5.679688 0.5625 -4.828125 C 0.695312 -3.984375 0.988281 -3.269531 1.4375 -2.6875 C 1.882812 -2.113281 2.429688 -1.703125 3.078125 -1.453125 C 3.722656 -1.203125 4.410156 -1.140625 5.140625 -1.265625 Z M 5.140625 -1.265625 "/></g></g></g><g fill="#002a60" fill-opacity="1"><g transform="translate(212.006534, 299.452496)"><g/></g></g><g fill="#002a60" fill-opacity="1"><g transform="translate(217.359618, 298.153745)"><g><path d="M 0.515625 -0.625 C 1.753906 -2.226562 2.671875 -3.6875 3.265625 -5 C 3.867188 -6.320312 4.023438 -7.457031 3.734375 -8.40625 C 3.535156 -9.019531 3.207031 -9.46875 2.75 -9.75 C 2.300781 -10.039062 1.710938 -10.070312 0.984375 -9.84375 C 0.234375 -9.601562 -0.257812 -9.195312 -0.5 -8.625 C -0.738281 -8.050781 -0.769531 -7.390625 -0.59375 -6.640625 L -1.15625 -6.46875 C -1.394531 -7.414062 -1.335938 -8.226562 -0.984375 -8.90625 C -0.640625 -9.59375 -0.0351562 -10.070312 0.828125 -10.34375 C 1.585938 -10.582031 2.28125 -10.5625 2.90625 -10.28125 C 3.539062 -10.007812 3.992188 -9.445312 4.265625 -8.59375 C 4.597656 -7.53125 4.453125 -6.304688 3.828125 -4.921875 C 3.203125 -3.535156 2.390625 -2.234375 1.390625 -1.015625 L 6.46875 -2.609375 L 6.625 -2.140625 L 0.625 -0.25 Z M 0.515625 -0.625 "/></g></g></g><g fill="#002a60" fill-opacity="1"><g transform="translate(226.331608, 295.257698)"><g><path d="M -1 -4.78125 C -1.582031 -6.195312 -1.828125 -7.375 -1.734375 -8.3125 C -1.640625 -9.25 -1.039062 -9.945312 0.0625 -10.40625 C 1.15625 -10.851562 2.066406 -10.773438 2.796875 -10.171875 C 3.523438 -9.578125 4.179688 -8.570312 4.765625 -7.15625 C 5.359375 -5.707031 5.609375 -4.507812 5.515625 -3.5625 C 5.429688 -2.613281 4.84375 -1.914062 3.75 -1.46875 C 2.644531 -1.007812 1.722656 -1.082031 0.984375 -1.6875 C 0.253906 -2.300781 -0.40625 -3.332031 -1 -4.78125 Z M 4.21875 -6.921875 C 3.882812 -7.734375 3.539062 -8.398438 3.1875 -8.921875 C 2.832031 -9.453125 2.414062 -9.8125 1.9375 -10 C 1.46875 -10.1875 0.914062 -10.148438 0.28125 -9.890625 C -0.351562 -9.628906 -0.773438 -9.265625 -0.984375 -8.796875 C -1.191406 -8.328125 -1.234375 -7.78125 -1.109375 -7.15625 C -0.992188 -6.539062 -0.769531 -5.828125 -0.4375 -5.015625 C -0.0820312 -4.171875 0.265625 -3.484375 0.609375 -2.953125 C 0.960938 -2.429688 1.378906 -2.070312 1.859375 -1.875 C 2.335938 -1.6875 2.894531 -1.722656 3.53125 -1.984375 C 4.164062 -2.242188 4.582031 -2.609375 4.78125 -3.078125 C 4.988281 -3.554688 5.035156 -4.101562 4.921875 -4.71875 C 4.804688 -5.34375 4.570312 -6.078125 4.21875 -6.921875 Z M 4.21875 -6.921875 "/></g></g></g><g fill="#002a60" fill-opacity="1"><g transform="translate(235.409563, 291.423884)"><g><path d="M 0.390625 -0.703125 C 1.335938 -2.492188 1.992188 -4.085938 2.359375 -5.484375 C 2.734375 -6.890625 2.695312 -8.03125 2.25 -8.90625 C 1.945312 -9.476562 1.546875 -9.867188 1.046875 -10.078125 C 0.554688 -10.285156 -0.03125 -10.210938 -0.71875 -9.859375 C -1.40625 -9.503906 -1.820312 -9.019531 -1.96875 -8.40625 C -2.113281 -7.800781 -2.03125 -7.148438 -1.71875 -6.453125 L -2.25 -6.171875 C -2.644531 -7.066406 -2.722656 -7.878906 -2.484375 -8.609375 C -2.253906 -9.347656 -1.742188 -9.921875 -0.953125 -10.328125 C -0.234375 -10.691406 0.457031 -10.789062 1.125 -10.625 C 1.800781 -10.457031 2.34375 -9.976562 2.75 -9.1875 C 3.257812 -8.195312 3.320312 -6.96875 2.9375 -5.5 C 2.550781 -4.03125 1.972656 -2.609375 1.203125 -1.234375 L 5.9375 -3.671875 L 6.171875 -3.234375 L 0.578125 -0.359375 Z M 0.390625 -0.703125 "/></g></g></g><g fill="#002a60" fill-opacity="1"><g transform="translate(243.758027, 287.04182)"><g><path d="M 1 -11.203125 L -3.34375 -8.484375 L -1.3125 -5.25 C -1.28125 -5.65625 -1.128906 -6.070312 -0.859375 -6.5 C -0.585938 -6.925781 -0.21875 -7.285156 0.25 -7.578125 C 0.863281 -7.960938 1.4375 -8.15625 1.96875 -8.15625 C 2.507812 -8.164062 2.988281 -8.023438 3.40625 -7.734375 C 3.832031 -7.441406 4.1875 -7.066406 4.46875 -6.609375 C 4.789062 -6.097656 4.988281 -5.570312 5.0625 -5.03125 C 5.144531 -4.5 5.0625 -3.984375 4.8125 -3.484375 C 4.570312 -2.984375 4.144531 -2.539062 3.53125 -2.15625 C 2.789062 -1.6875 2.054688 -1.503906 1.328125 -1.609375 C 0.609375 -1.710938 -0.0195312 -2.078125 -0.5625 -2.703125 L -0.078125 -3 C 0.398438 -2.488281 0.929688 -2.203125 1.515625 -2.140625 C 2.097656 -2.085938 2.675781 -2.238281 3.25 -2.59375 C 3.976562 -3.050781 4.394531 -3.609375 4.5 -4.265625 C 4.601562 -4.929688 4.4375 -5.609375 4 -6.296875 C 3.570312 -6.984375 3.050781 -7.398438 2.4375 -7.546875 C 1.820312 -7.691406 1.164062 -7.546875 0.46875 -7.109375 C -0.0078125 -6.804688 -0.363281 -6.429688 -0.59375 -5.984375 C -0.832031 -5.546875 -0.9375 -5.078125 -0.90625 -4.578125 L -1.390625 -4.28125 L -4.109375 -8.625 L 0.71875 -11.65625 Z M 1 -11.203125 "/></g></g></g><g fill="#002a60" fill-opacity="1"><g transform="translate(83.23557, 221.444443)"><g><path d="M 13.671875 -84.359375 C 18.648438 -86.429688 23.441406 -87.46875 28.046875 -87.46875 C 31.867188 -87.46875 35.8125 -86.050781 39.875 -83.21875 C 42.101562 -81.6875 44.59375 -78.695312 47.34375 -74.25 C 49.1875 -71.1875 51.523438 -65.628906 54.359375 -57.578125 L 68.375 -17.8125 C 71.59375 -8.925781 74.867188 -1.859375 78.203125 3.390625 C 81.535156 8.640625 84.582031 12.582031 87.34375 15.21875 C 90.101562 17.863281 92.976562 19.722656 95.96875 20.796875 C 98.957031 21.867188 101.425781 22.40625 103.375 22.40625 C 105.332031 22.40625 107.078125 22.253906 108.609375 21.953125 L 108.71875 23.109375 C 105.039062 24.328125 101.441406 24.9375 97.921875 24.9375 C 94.398438 24.9375 90.875 24.035156 87.34375 22.234375 C 83.820312 20.441406 80.53125 17.9375 77.46875 14.71875 C 70.875 8.050781 65.28125 -2.101562 60.6875 -15.75 L 56.203125 -28.84375 L 24.703125 -28.84375 L 16.78125 -8.390625 C 16.394531 -7.472656 16.203125 -6.550781 16.203125 -5.625 C 16.203125 -4.707031 16.601562 -3.734375 17.40625 -2.703125 C 18.207031 -1.671875 19.453125 -1.15625 21.140625 -1.15625 L 22.0625 -1.15625 L 22.0625 0 L -1.046875 0 L -1.046875 -1.15625 L 0 -1.15625 C 1.832031 -1.15625 3.628906 -1.707031 5.390625 -2.8125 C 7.160156 -3.925781 8.617188 -5.59375 9.765625 -7.8125 L 38.265625 -76.09375 C 34.128906 -81.988281 28.992188 -84.9375 22.859375 -84.9375 C 20.109375 -84.9375 17.160156 -84.363281 14.015625 -83.21875 Z M 25.96875 -32.296875 L 55.046875 -32.296875 L 45.96875 -59.078125 C 44.207031 -64.210938 42.597656 -68.234375 41.140625 -71.140625 Z M 25.96875 -32.296875 "/></g></g></g><g fill="#002a60" fill-opacity="1"><g transform="translate(132.072431, 101.380239)"><g><path d="M -0.421875 -10.609375 L 3.25 -4.328125 C 3.582031 -3.765625 3.675781 -3.207031 3.53125 -2.65625 C 3.394531 -2.113281 3.035156 -1.671875 2.453125 -1.328125 C 1.816406 -0.953125 1.207031 -0.851562 0.625 -1.03125 C 0.0507812 -1.207031 -0.425781 -1.628906 -0.8125 -2.296875 L -0.296875 -2.59375 C -0.00390625 -2.101562 0.347656 -1.769531 0.765625 -1.59375 C 1.191406 -1.414062 1.664062 -1.476562 2.1875 -1.78125 C 2.664062 -2.0625 2.929688 -2.410156 2.984375 -2.828125 C 3.046875 -3.242188 2.960938 -3.644531 2.734375 -4.03125 L -0.9375 -10.3125 Z M -0.421875 -10.609375 "/></g></g></g><g fill="#002a60" fill-opacity="1"><g transform="translate(138.355083, 97.658587)"><g><path d="M 4.8125 -2.140625 C 4.03125 -1.773438 3.238281 -1.625 2.4375 -1.6875 C 1.644531 -1.757812 0.914062 -2.046875 0.25 -2.546875 C -0.40625 -3.046875 -0.929688 -3.710938 -1.328125 -4.546875 C -1.722656 -5.378906 -1.894531 -6.203125 -1.84375 -7.015625 C -1.800781 -7.835938 -1.550781 -8.582031 -1.09375 -9.25 C -0.644531 -9.914062 -0.03125 -10.429688 0.75 -10.796875 C 1.53125 -11.160156 2.320312 -11.304688 3.125 -11.234375 C 3.925781 -11.160156 4.660156 -10.878906 5.328125 -10.390625 C 5.992188 -9.898438 6.523438 -9.238281 6.921875 -8.40625 C 7.316406 -7.570312 7.488281 -6.738281 7.4375 -5.90625 C 7.382812 -5.082031 7.128906 -4.335938 6.671875 -3.671875 C 6.210938 -3.015625 5.59375 -2.503906 4.8125 -2.140625 Z M 4.59375 -2.609375 C 5.257812 -2.921875 5.789062 -3.363281 6.1875 -3.9375 C 6.582031 -4.507812 6.796875 -5.15625 6.828125 -5.875 C 6.859375 -6.601562 6.691406 -7.351562 6.328125 -8.125 C 5.960938 -8.90625 5.492188 -9.515625 4.921875 -9.953125 C 4.347656 -10.390625 3.710938 -10.632812 3.015625 -10.6875 C 2.328125 -10.75 1.648438 -10.625 0.984375 -10.3125 C 0.316406 -10 -0.207031 -9.554688 -0.59375 -8.984375 C -0.988281 -8.421875 -1.207031 -7.773438 -1.25 -7.046875 C -1.300781 -6.328125 -1.144531 -5.578125 -0.78125 -4.796875 C -0.414062 -4.023438 0.0546875 -3.421875 0.640625 -2.984375 C 1.234375 -2.546875 1.875 -2.296875 2.5625 -2.234375 C 3.25 -2.171875 3.925781 -2.296875 4.59375 -2.609375 Z M 4.59375 -2.609375 "/></g></g></g><g fill="#002a60" fill-opacity="1"><g transform="translate(148.96417, 92.845973)"><g><path d="M -1.40625 -8.90625 L -0.078125 -5.234375 L 3.4375 -6.5 L 3.609375 -6.015625 L 0.09375 -4.75 L 1.421875 -1.046875 L 5.3125 -2.4375 L 5.484375 -1.96875 L 1.03125 -0.375 L -2.140625 -9.1875 L 2.3125 -10.78125 L 2.484375 -10.296875 Z M -1.40625 -8.90625 "/></g></g></g><g fill="#002a60" fill-opacity="1"><g transform="translate(156.280919, 90.275338)"><g><path d="M 1.484375 -0.953125 L 4.828125 -1.90625 L 4.96875 -1.421875 L 1.046875 -0.296875 L -1.515625 -9.3125 L -0.9375 -9.484375 Z M 1.484375 -0.953125 "/></g></g></g><g fill="#002a60" fill-opacity="1"><g transform="translate(162.740189, 88.499263)"><g/></g></g><g fill="#002a60" fill-opacity="1"><g transform="translate(167.603981, 87.390467)"><g><path d="M 5.328125 -10.34375 L 3.28125 -4.359375 L 3.875 -0.609375 L 3.28125 -0.515625 L 2.6875 -4.265625 L -1.125 -9.3125 L -0.453125 -9.421875 L 2.890625 -4.859375 L 4.640625 -10.234375 Z M 5.328125 -10.34375 "/></g></g></g><g fill="#002a60" fill-opacity="1"><g transform="translate(175.954246, 86.165679)"><g/></g></g><g fill="#002a60" fill-opacity="1"><g transform="translate(180.898322, 85.668063)"><g><path d="M 6.34375 -2.5625 L 1.90625 -2.453125 L 1.0625 -0.03125 L 0.40625 -0.015625 L 3.640625 -9.25 L 4.3125 -9.265625 L 7.953125 -0.1875 L 7.296875 -0.171875 Z M 6.15625 -3.046875 L 4 -8.453125 L 2.078125 -2.953125 Z M 6.15625 -3.046875 "/></g></g></g><g fill="#002a60" fill-opacity="1"><g transform="translate(190.373054, 85.486676)"><g><path d="M 7.78125 0.546875 L 7.171875 0.5 L 2.265625 -8.234375 L 1.6875 0.125 L 1.09375 0.078125 L 1.75 -9.265625 L 2.34375 -9.21875 L 7.234375 -0.5 L 7.828125 -8.84375 L 8.4375 -8.796875 Z M 7.78125 0.546875 "/></g></g></g><g fill="#002a60" fill-opacity="1"><g transform="translate(200.386794, 86.291464)"><g><path d="M 6.359375 -8.5 L 5.25 -1.296875 C 5.15625 -0.660156 4.878906 -0.175781 4.421875 0.15625 C 3.960938 0.5 3.398438 0.617188 2.734375 0.515625 C 2.015625 0.398438 1.484375 0.09375 1.140625 -0.40625 C 0.804688 -0.90625 0.695312 -1.535156 0.8125 -2.296875 L 1.390625 -2.203125 C 1.304688 -1.640625 1.375 -1.15625 1.59375 -0.75 C 1.8125 -0.351562 2.21875 -0.109375 2.8125 -0.015625 C 3.363281 0.0664062 3.789062 -0.03125 4.09375 -0.3125 C 4.40625 -0.59375 4.59375 -0.953125 4.65625 -1.390625 L 5.765625 -8.59375 Z M 6.359375 -8.5 "/></g></g></g><g fill="#002a60" fill-opacity="1"><g transform="translate(207.664905, 87.448705)"><g><path d="M 3.609375 -8.265625 L 2.75 -4.453125 L 6.40625 -3.609375 L 6.28125 -3.109375 L 2.625 -3.953125 L 1.75 -0.109375 L 5.796875 0.8125 L 5.6875 1.296875 L 1.0625 0.25 L 3.15625 -8.890625 L 7.78125 -7.84375 L 7.65625 -7.34375 Z M 3.609375 -8.265625 "/></g></g></g><g fill="#002a60" fill-opacity="1"><g transform="translate(215.211201, 89.236811)"><g><path d="M 1.75 0 L 5.09375 1.015625 L 4.953125 1.5 L 1.046875 0.3125 L 3.765625 -8.65625 L 4.328125 -8.484375 Z M 1.75 0 "/></g></g></g><g fill="#002a60" fill-opacity="1"><g transform="translate(221.619828, 91.246647)"><g><path d="M 4.765625 -8.25 L 1.59375 0.578125 L 1.03125 0.375 L 4.203125 -8.453125 Z M 4.765625 -8.25 "/></g></g></g><g fill="#002a60" fill-opacity="1"><g transform="translate(225.410186, 92.508706)"><g><path d="M 2.5625 -3.96875 C 2.9375 -4.8125 3.445312 -5.484375 4.09375 -5.984375 C 4.738281 -6.492188 5.453125 -6.796875 6.234375 -6.890625 C 7.023438 -6.992188 7.804688 -6.875 8.578125 -6.53125 C 9.554688 -6.09375 10.28125 -5.5 10.75 -4.75 C 11.21875 -4 11.421875 -3.144531 11.359375 -2.1875 L 10.734375 -2.46875 C 10.773438 -3.21875 10.59375 -3.910156 10.1875 -4.546875 C 9.789062 -5.179688 9.179688 -5.679688 8.359375 -6.046875 C 7.703125 -6.335938 7.035156 -6.445312 6.359375 -6.375 C 5.691406 -6.300781 5.070312 -6.035156 4.5 -5.578125 C 3.925781 -5.128906 3.46875 -4.507812 3.125 -3.71875 C 2.769531 -2.9375 2.617188 -2.1875 2.671875 -1.46875 C 2.722656 -0.757812 2.941406 -0.128906 3.328125 0.421875 C 3.722656 0.984375 4.25 1.410156 4.90625 1.703125 C 5.726562 2.066406 6.507812 2.1875 7.25 2.0625 C 7.988281 1.9375 8.625 1.601562 9.15625 1.0625 L 9.78125 1.34375 C 9.113281 2.03125 8.34375 2.453125 7.46875 2.609375 C 6.601562 2.765625 5.679688 2.625 4.703125 2.1875 C 3.929688 1.84375 3.316406 1.347656 2.859375 0.703125 C 2.398438 0.0546875 2.140625 -0.671875 2.078125 -1.484375 C 2.023438 -2.304688 2.1875 -3.132812 2.5625 -3.96875 Z M 2.5625 -3.96875 "/></g></g></g><g fill="#002a60" fill-opacity="1"><g transform="translate(235.742465, 97.223285)"><g><path d="M 6.75 1.078125 L 2.890625 -1.125 L 0.921875 0.53125 L 0.359375 0.203125 L 7.890625 -6.046875 L 8.46875 -5.703125 L 6.90625 3.9375 L 6.34375 3.609375 Z M 6.84375 0.546875 L 7.78125 -5.1875 L 3.296875 -1.46875 Z M 6.84375 0.546875 "/></g></g></g></svg>